<svg id="Layer_1" data-name="Layer 1" xmlns="http://www.w3.org/2000/svg" viewBox="0 0 200 200"><title>adamctj_icon</title><path d="M196.37,82.75a18.38,18.38,0,0,1-1.75,3.3c-11.23,13.65-22.28,27.46-33.83,40.83-12.32,14.26-27.73,24.65-44.37,33.23q-14.16,7.3-28.57,14.1c-2.24,1.06-4.89,1.33-7.39,1.71-7.57,1.16-15.15,2.5-22.84,1A24.4,24.4,0,0,1,52,175.47c-7.88-3.64-15.8-7.23-23.43-11.34-2.37-1.28-3.9-4.14-5.81-6.27l.72-.8a46,46,0,0,1,4.37,2.37c9.43,6.46,20.23,8.16,31.24,9.78,16.78,2.48,32-1.42,46.48-9.52,5.17-2.89,10.43-5.61,15.63-8.43a105.07,105.07,0,0,0,24.52-18.65c6.38-6.42,13.37-12.25,20.29-18.52L163.44,112c-3.46,3.29-7.14,6.52-10.52,10-6.37,6.64-14.46,8.84-23.22,9.57-13,1.08-23.49-5-33.79-11.64-4.7-3-8.9-2.63-13,1.33-3.75,3.59-7.31,7.75-11.76,10.17-13.56,7.39-28,10-43,4.58-9.21-3.31-14.55-10.5-18.4-19.06A9.28,9.28,0,0,0,8,114.06l5.09,27.68-.93.58c-1.29-1.85-3.09-3.52-3.77-5.57C6,129.59,3.73,122.37,2.05,115a14.69,14.69,0,0,1,.75-10.09c1.18-2.39,1.16-5.35,1.78-8A50,50,0,0,1,15.84,75.42C21.48,68.83,27,62.14,32.19,55.17c5-6.82,12.14-9.86,19.84-11.73,12.1-2.94,23.86-1.48,34.47,5.15,3.87,2.42,6.94,6.23,10.08,9.69,3.31,3.64,4.25,3.87,7.9.48,1.42-1.32,2.78-2.71,4.17-4.06a23.63,23.63,0,0,1,34.2.9c5.77,6.22,11.61,12.33,19.66,15.75l-.2.87c-5.21-.29-10.57.08-15.61-1-14.1-3.05-25.54,2.58-36.6,10.08a21.48,21.48,0,0,0-9.28,12.85,7.57,7.57,0,0,0,.33,4.29c1.65,4.27,4.85,7.25,8.76,9.49,2.12,1.22,4.28,2.39,6.48,3.45,9.91,4.75,19.18,5.27,28.54-2.17,8.29-6.59,17.53-12,26.31-18,6.34-4.32,7.88-10.21,5.14-17.39-3.9-10.24-9.15-19.52-16.76-27.54-9.76-10.3-22.37-15.1-35.42-19.06A56.52,56.52,0,0,0,91.58,27c-4,1.14-8.37,1-12.3,2.23-4.5,1.44-8.71,3.82-13.06,5.75a48.84,48.84,0,0,1-5.62,2.2,2.3,2.3,0,0,1-2-.75,2.43,2.43,0,0,1,.16-2.08c1.95-3.48,4.51-6.11,8.61-7.27Q83,22.65,98.47,17.77c7.64-2.41,15.64-2.19,23-.93A75.65,75.65,0,0,1,149.73,27.4a15.46,15.46,0,0,1,5,4.88c1.58,2.69,3.73,4.26,6.28,5.9,3.45,2.22,7.1,4.85,9.28,8.2a127.72,127.72,0,0,1,9.48,18.48c1,2.17.51,5,.53,7.54s-.34,5.1-.27,7.65c.11,4.11,1.79,5.09,5.81,4,3.21-.88,6.51-1.43,9.77-2.13ZM52.59,91.35c-1.73.12-3.48.13-5.2.37-7.94,1.14-15,4.1-19.49,11.09-3.09,4.8-2.58,10,0,14.91,2.31,4.38,6.16,6.4,11.14,6.56,14.77.47,26.09-6.6,36-16.54,1-1,1.38-4.31.61-5.06C69.26,96.44,62.76,90.07,52.59,91.35Zm-42.53,7.4C11.33,98,12.15,97.5,13,97c6.89-4.28,13.68-8.73,20.7-12.8,6.57-3.82,13.66-6.25,21.36-4.41a126.84,126.84,0,0,1,14,4.57c3.22,1.18,6.31,2.75,9.83,4.31,0-4.28.26-8.15-.06-12-.54-6.47-4-10.73-10.31-12a43.36,43.36,0,0,0-12.9-.48c-7.82.85-14,5.34-19.62,10.49-2.16,2-4.38,3-7.33,2.33-3.43-.74-6.21.72-8.74,2.9C14.25,84.81,12.13,91.47,10.06,98.75Z"/></svg>